<svg xmlns="http://www.w3.org/2000/svg" xmlns:xlink="http://www.w3.org/1999/xlink" viewBox="35 50 290 200" preserveAspectRatio="xMidYMid meet" version="1.0"><defs><g/><clipPath id="ee7a22fb46"><path d="M 117.714844 122.761719 L 149.964844 122.761719 L 149.964844 152.757812 L 117.714844 152.757812 Z M 117.714844 122.761719 " clip-rule="nonzero"/></clipPath><clipPath id="3149f9ac8a"><path d="M 94 104 L 264 104 L 264 219 L 94 219 Z M 94 104 " clip-rule="nonzero"/></clipPath><clipPath id="aa5615c138"><path d="M 163.511719 75.386719 L 289.351562 157.027344 L 211.386719 277.203125 L 85.546875 195.5625 Z M 163.511719 75.386719 " clip-rule="nonzero"/></clipPath><clipPath id="093bf46e50"><path d="M 163.511719 75.386719 L 289.351562 157.027344 L 211.386719 277.203125 L 85.546875 195.5625 Z M 163.511719 75.386719 " clip-rule="nonzero"/></clipPath><clipPath id="57fdd632e3"><path d="M 163.546875 75.410156 L 289.3125 157 L 211.453125 277.019531 L 85.683594 195.429688 Z M 163.546875 75.410156 " clip-rule="nonzero"/></clipPath></defs><g clip-path="url(#ee7a22fb46)"><path fill="#ffc39e" d="M 136.746094 122.800781 C 137.21875 122.8125 137.691406 122.800781 138.164062 122.777344 C 158.355469 121.765625 152.699219 165.324219 126.324219 149.636719 C 109.378906 139.558594 119.902344 122.339844 136.746094 122.800781 " fill-opacity="1" fill-rule="nonzero"/></g><g clip-path="url(#3149f9ac8a)"><g clip-path="url(#aa5615c138)"><g clip-path="url(#093bf46e50)"><g clip-path="url(#57fdd632e3)"><path fill="#ffc39e" d="M 257.296875 206.351562 C 249.207031 218.628906 237.535156 221.683594 225.015625 213.957031 C 209.101562 204.136719 196.59375 191.03125 176.597656 197.003906 C 159.128906 202.222656 142.589844 215.730469 123.523438 213.761719 C 106.863281 212.039062 89.648438 202.273438 95.238281 183.871094 C 97.46875 176.53125 101.375 169.5625 107.898438 165.265625 C 115.273438 160.410156 124.035156 161.035156 132.234375 158.683594 C 150.925781 153.324219 157.484375 140.066406 166.050781 124.324219 C 173.808594 110.066406 191.066406 102.394531 206.941406 105.480469 C 218.996094 107.824219 234.554688 124.214844 227.472656 137.101562 C 224.214844 143.03125 215.167969 145.546875 219.78125 153.441406 C 224.21875 161.035156 239.292969 164.402344 246.8125 167.566406 C 264.21875 174.894531 267.464844 190.730469 257.296875 206.351562 " fill-opacity="1" fill-rule="nonzero"/></g></g></g></g><path fill="#000000" d="M 167.339844 219.300781 C 151.03125 219.300781 136.410156 217.304688 127.496094 212.683594 C 111.464844 204.308594 105.847656 200.121094 105.230469 195.597656 C 104.925781 193.363281 105.945312 191.171875 108.375 188.894531 C 113.238281 184.316406 121.234375 188.476562 129.675781 192.886719 C 134.371094 195.34375 139.222656 197.871094 143.316406 198.722656 C 147.632812 199.617188 149.410156 197.035156 151.980469 192.777344 C 154.550781 188.519531 157.570312 183.394531 165.273438 185.015625 C 171.855469 186.410156 173.65625 191.101562 175.152344 194.871094 C 176.859375 199.28125 177.792969 201.710938 184.9375 199.171875 C 190.367188 197.078125 195.144531 193.980469 199.261719 189.875 C 203.691406 185.894531 207.519531 182.460938 213.699219 184.679688 C 216.433594 185.710938 218.929688 187.15625 221.1875 189.007812 C 224.738281 191.714844 226.527344 193.082031 233.613281 188.351562 C 238.234375 185.28125 243.019531 182.488281 247.96875 179.976562 C 247.199219 178.023438 246.316406 176.097656 245.480469 174.238281 L 244.878906 172.925781 C 242.082031 166.828125 234.035156 162.960938 226.890625 159.554688 L 224.320312 158.324219 C 224.4375 159.285156 224.453125 160.246094 224.363281 161.207031 C 224.273438 162.167969 224.082031 163.109375 223.789062 164.027344 C 223.496094 164.949219 223.109375 165.828125 222.625 166.664062 C 222.140625 167.5 221.574219 168.277344 220.925781 168.992188 C 216.046875 174.28125 212.019531 176.292969 209.269531 174.8125 C 206.261719 173.191406 205.816406 168.027344 207.953125 159.457031 C 211.855469 143.890625 208.863281 141.03125 199.332031 136.800781 C 197.398438 135.980469 195.386719 135.519531 193.292969 135.414062 C 191.195312 135.3125 189.148438 135.574219 187.144531 136.199219 C 189.828125 142.691406 195.097656 165.515625 187.773438 170.722656 C 187.15625 171.214844 186.457031 171.523438 185.675781 171.640625 C 184.894531 171.761719 184.136719 171.675781 183.398438 171.390625 C 178.703125 169.480469 176.160156 159.023438 174.300781 149.058594 L 174.300781 148.707031 C 173.839844 146.863281 173.054688 145.171875 171.945312 143.632812 C 170.832031 142.089844 169.476562 140.808594 167.871094 139.789062 C 166.914062 139.171875 165.90625 138.660156 164.84375 138.25 C 163.78125 137.84375 162.6875 137.550781 161.566406 137.367188 C 160.441406 137.1875 159.3125 137.121094 158.175781 137.175781 C 157.039062 137.226562 155.917969 137.394531 154.816406 137.679688 C 153.902344 137.816406 153.023438 138.074219 152.179688 138.460938 C 151.335938 138.84375 150.5625 139.335938 149.855469 139.9375 C 149.152344 140.539062 148.546875 141.222656 148.035156 141.996094 C 147.523438 142.769531 147.128906 143.597656 146.851562 144.480469 C 152.664062 146.210938 159.90625 153.972656 163.621094 161.230469 C 166.558594 166.9375 166.90625 171.613281 164.585938 174.378906 C 159.933594 179.960938 152.441406 174.140625 145.832031 169.003906 C 142.476562 166.378906 139.011719 163.6875 136.144531 162.542969 C 129.257812 159.75 118.84375 155.5625 106.964844 178.789062 C 105.726562 181.3125 104.214844 183.65625 102.429688 185.824219 C 100.644531 187.992188 98.628906 189.925781 96.390625 191.621094 C 94.148438 193.320312 91.742188 194.734375 89.171875 195.867188 C 86.597656 197 83.929688 197.824219 81.164062 198.332031 C 76.539062 199.199219 71.890625 199.363281 67.214844 198.820312 C 62.539062 198.28125 58.050781 197.0625 53.746094 195.164062 L 54.917969 192.636719 C 68 198.625 93.03125 199.8125 104.476562 177.519531 C 116.414062 154.039062 127.566406 156.132812 137.097656 159.929688 C 140.339844 161.230469 143.957031 164.117188 147.46875 166.785156 C 154.691406 172.367188 159.640625 175.84375 162.363281 172.578125 C 163.886719 170.75 163.414062 167.078125 161.050781 162.484375 C 157.320312 155.199219 150.316406 148.277344 145.816406 147.132812 C 144.714844 150.3125 143.496094 153.550781 139.792969 155.507812 C 137.53125 156.761719 135.8125 156.902344 134.679688 155.980469 C 134.105469 155.519531 133.28125 154.390625 134.007812 152.085938 C 134.390625 151.035156 134.902344 150.050781 135.554688 149.140625 C 136.203125 148.230469 136.964844 147.421875 137.835938 146.71875 C 138.707031 146.015625 139.65625 145.441406 140.683594 144.996094 C 141.710938 144.550781 142.78125 144.253906 143.890625 144.101562 C 145.285156 140.304688 147.410156 136.425781 154.105469 134.917969 C 155.386719 134.59375 156.683594 134.40625 158.003906 134.355469 C 159.320312 134.300781 160.632812 134.378906 161.933594 134.59375 C 163.234375 134.808594 164.5 135.15625 165.734375 135.628906 C 166.964844 136.105469 168.132812 136.699219 169.242188 137.414062 C 171.167969 138.640625 172.792969 140.183594 174.113281 142.042969 C 175.4375 143.902344 176.359375 145.945312 176.886719 148.164062 L 176.886719 148.5 C 179.207031 160.894531 181.707031 167.71875 184.292969 168.765625 C 184.589844 168.878906 184.894531 168.902344 185.203125 168.839844 C 185.511719 168.777344 185.78125 168.636719 186.011719 168.417969 C 191.378906 164.621094 187.144531 143.027344 184.308594 136.996094 L 182.644531 137.582031 C 179.847656 138.558594 177.667969 139.339844 175.835938 138.796875 C 175.574219 138.753906 175.328125 138.664062 175.097656 138.535156 C 174.863281 138.402344 174.660156 138.234375 174.488281 138.03125 C 174.316406 137.828125 174.183594 137.601562 174.089844 137.351562 C 174 137.101562 173.953125 136.84375 173.949219 136.578125 C 173.949219 134.695312 176.621094 133.199219 179.023438 132.613281 C 180.113281 132.257812 181.222656 132.175781 182.351562 132.375 C 183.480469 132.574219 184.496094 133.023438 185.398438 133.730469 C 187.828125 132.882812 190.332031 132.503906 192.90625 132.589844 C 195.480469 132.671875 197.953125 133.214844 200.324219 134.21875 C 211.390625 139.132812 214.59375 143.78125 210.511719 160.097656 C 208.527344 168.054688 209.226562 171.644531 210.511719 172.300781 C 211.796875 172.953125 214.703125 171.515625 218.773438 167.035156 C 219.390625 166.34375 219.914062 165.585938 220.339844 164.761719 C 220.765625 163.9375 221.082031 163.074219 221.292969 162.167969 C 221.5 161.265625 221.589844 160.351562 221.566406 159.421875 C 221.542969 158.496094 221.402344 157.585938 221.148438 156.691406 C 217.289062 154.585938 214.648438 152.503906 214.496094 149.714844 C 214.371094 147.464844 215.429688 146.78125 216.074219 146.574219 C 218.28125 145.847656 220.53125 148.917969 221.398438 150.273438 C 222.3125 151.691406 223.023438 153.210938 223.523438 154.824219 C 224.921875 155.5625 226.484375 156.21875 228.023438 157.027344 C 235.585938 160.644531 244.164062 164.734375 247.339844 171.753906 L 247.9375 173.066406 C 248.75 174.867188 249.617188 176.765625 250.398438 178.746094 C 261.816406 173.386719 273.988281 170.371094 283.480469 174.558594 C 288.636719 176.863281 291.992188 180.535156 294.953125 183.757812 C 300.90625 190.265625 304.847656 194.578125 319.382812 185.15625 L 320.894531 187.5 C 304.386719 198.125 298.796875 192.023438 292.941406 185.574219 C 290.035156 182.390625 287.015625 179.109375 282.390625 177.046875 C 273.710938 173.179688 262.265625 176.109375 251.40625 181.234375 C 253.039062 186.175781 253.765625 191.410156 251.503906 196.324219 C 248.707031 202.574219 241.480469 207.292969 229.660156 210.742188 C 209.265625 216.363281 188.496094 219.214844 167.339844 219.300781 Z M 113.714844 189.734375 C 112.414062 189.664062 111.269531 190.058594 110.292969 190.921875 C 108 193.070312 107.886719 194.410156 108 195.21875 C 108.515625 198.972656 116.691406 203.929688 128.78125 210.199219 C 148.472656 220.414062 197.332031 217.316406 228.863281 208.144531 C 239.859375 204.933594 246.445312 200.71875 248.960938 195.234375 C 250.789062 191.242188 250.257812 186.859375 248.875 182.558594 C 244.132812 185 239.546875 187.707031 235.125 190.683594 C 226.738281 196.265625 223.746094 194.492188 219.457031 191.226562 C 217.425781 189.554688 215.179688 188.246094 212.71875 187.304688 C 208.109375 185.65625 205.3125 188.15625 201.09375 191.9375 C 196.699219 196.296875 191.613281 199.582031 185.832031 201.792969 C 176.1875 205.257812 174.246094 200.273438 172.539062 195.890625 C 171.140625 192.261719 169.746094 188.828125 164.683594 187.75 C 158.996094 186.535156 156.84375 190.097656 154.371094 194.214844 C 151.898438 198.332031 149.214844 202.785156 142.757812 201.460938 C 138.269531 200.523438 133.238281 197.898438 128.390625 195.375 C 123.121094 192.582031 117.53125 189.734375 113.714844 189.734375 Z M 142.8125 147.132812 C 141.695312 147.484375 140.675781 148.023438 139.753906 148.742188 C 138.828125 149.464844 138.0625 150.320312 137.445312 151.320312 C 136.902344 152.0625 136.585938 152.890625 136.496094 153.804688 C 137.214844 153.707031 137.878906 153.464844 138.496094 153.078125 C 140.898438 151.679688 141.917969 149.601562 142.8125 147.132812 Z M 217.332031 149.601562 C 217.667969 150.78125 218.367188 151.679688 219.429688 152.296875 C 218.871094 151.289062 218.171875 150.390625 217.332031 149.601562 Z M 181.359375 135.113281 C 180.050781 135.15625 178.828125 135.507812 177.695312 136.160156 C 178.949219 135.925781 180.171875 135.578125 181.359375 135.113281 Z M 181.359375 135.113281 " fill-opacity="1" fill-rule="nonzero"/></svg>
