<svg xmlns="http://www.w3.org/2000/svg" xmlns:xlink="http://www.w3.org/1999/xlink" width="500" zoomAndPan="magnify" viewBox="0 0 375 374.999991" height="500" preserveAspectRatio="xMidYMid meet" version="1.0"><defs><g/><clipPath id="c371924866"><path d="M 112.5 117.816406 L 144.75 117.816406 L 144.75 147.8125 L 112.5 147.8125 Z M 112.5 117.816406 " clip-rule="nonzero"/></clipPath><clipPath id="2c874f1379"><path d="M 88 99 L 258 99 L 258 214 L 88 214 Z M 88 99 " clip-rule="nonzero"/></clipPath><clipPath id="b6a2f7d21b"><path d="M 158.296875 70.441406 L 284.132812 152.082031 L 206.171875 272.257812 L 80.332031 190.617188 Z M 158.296875 70.441406 " clip-rule="nonzero"/></clipPath><clipPath id="e1ee197e4f"><path d="M 158.296875 70.441406 L 284.132812 152.082031 L 206.171875 272.257812 L 80.332031 190.617188 Z M 158.296875 70.441406 " clip-rule="nonzero"/></clipPath><clipPath id="9e256ca931"><path d="M 158.328125 70.464844 L 284.097656 152.054688 L 206.234375 272.074219 L 80.46875 190.484375 Z M 158.328125 70.464844 " clip-rule="nonzero"/></clipPath></defs><g clip-path="url(#c371924866)"><path fill="#ffc39e" d="M 131.53125 117.855469 C 132.003906 117.867188 132.476562 117.855469 132.945312 117.832031 C 153.136719 116.820312 147.484375 160.378906 121.109375 144.691406 C 104.164062 134.613281 114.6875 117.394531 131.53125 117.855469 " fill-opacity="1" fill-rule="nonzero"/></g><g clip-path="url(#2c874f1379)"><g clip-path="url(#b6a2f7d21b)"><g clip-path="url(#e1ee197e4f)"><g clip-path="url(#9e256ca931)"><path fill="#ffc39e" d="M 252.082031 201.40625 C 243.992188 213.683594 232.316406 216.738281 219.796875 209.011719 C 203.882812 199.191406 191.375 186.085938 171.378906 192.058594 C 153.910156 197.277344 137.371094 210.785156 118.308594 208.816406 C 101.648438 207.09375 84.429688 197.328125 90.023438 178.925781 C 92.253906 171.585938 96.160156 164.617188 102.683594 160.320312 C 110.054688 155.464844 118.816406 156.089844 127.019531 153.738281 C 145.707031 148.378906 152.265625 135.121094 160.832031 119.378906 C 168.589844 105.121094 185.851562 97.449219 201.722656 100.535156 C 213.78125 102.878906 229.335938 119.269531 222.257812 132.15625 C 219 138.085938 209.953125 140.601562 214.566406 148.496094 C 219.003906 156.089844 234.078125 159.457031 241.597656 162.621094 C 259.003906 169.949219 262.25 185.785156 252.082031 201.40625 " fill-opacity="1" fill-rule="nonzero"/></g></g></g></g><path fill="#000000" d="M 157.25 205.25 C 140.9375 205.25 126.320312 203.253906 117.402344 198.636719 C 101.371094 190.257812 95.753906 186.070312 95.140625 181.550781 C 94.832031 179.316406 95.851562 177.125 98.285156 174.847656 C 103.148438 170.269531 111.140625 174.429688 119.582031 178.839844 C 124.277344 181.296875 129.128906 183.824219 133.222656 184.675781 C 137.542969 185.570312 139.316406 182.988281 141.890625 178.730469 C 144.460938 174.472656 147.480469 169.347656 155.179688 170.96875 C 161.761719 172.363281 163.566406 177.054688 165.0625 180.824219 C 166.765625 185.234375 167.703125 187.664062 174.84375 185.121094 C 180.273438 183.03125 185.050781 179.933594 189.167969 175.824219 C 193.597656 171.847656 197.429688 168.414062 203.605469 170.632812 C 206.339844 171.664062 208.835938 173.109375 211.097656 174.960938 C 214.648438 177.667969 216.4375 179.035156 223.523438 174.304688 C 228.140625 171.234375 232.925781 168.441406 237.875 165.929688 C 237.105469 163.976562 236.226562 162.046875 235.386719 160.191406 L 234.785156 158.878906 C 231.992188 152.78125 223.941406 148.914062 216.800781 145.507812 L 214.226562 144.277344 C 214.34375 145.238281 214.359375 146.199219 214.269531 147.160156 C 214.179688 148.121094 213.988281 149.0625 213.695312 149.980469 C 213.402344 150.902344 213.015625 151.78125 212.53125 152.617188 C 212.050781 153.453125 211.480469 154.230469 210.832031 154.945312 C 205.953125 160.234375 201.929688 162.242188 199.175781 160.765625 C 196.171875 159.144531 195.722656 153.980469 197.863281 145.410156 C 201.761719 129.84375 198.769531 126.984375 189.238281 122.753906 C 187.308594 121.933594 185.292969 121.472656 183.199219 121.367188 C 181.101562 121.265625 179.054688 121.527344 177.050781 122.152344 C 179.734375 128.644531 185.003906 151.46875 177.679688 156.675781 C 177.0625 157.167969 176.363281 157.472656 175.582031 157.59375 C 174.800781 157.714844 174.042969 157.628906 173.304688 157.34375 C 168.609375 155.433594 166.066406 144.976562 164.207031 135.011719 L 164.207031 134.660156 C 163.75 132.816406 162.964844 131.125 161.851562 129.585938 C 160.742188 128.042969 159.382812 126.761719 157.777344 125.742188 C 156.824219 125.125 155.8125 124.613281 154.753906 124.203125 C 153.691406 123.796875 152.597656 123.503906 151.472656 123.320312 C 150.351562 123.140625 149.21875 123.074219 148.082031 123.128906 C 146.945312 123.179688 145.828125 123.347656 144.726562 123.632812 C 143.808594 123.769531 142.929688 124.027344 142.085938 124.414062 C 141.242188 124.796875 140.46875 125.289062 139.765625 125.890625 C 139.058594 126.488281 138.453125 127.175781 137.941406 127.949219 C 137.429688 128.722656 137.035156 129.546875 136.757812 130.429688 C 142.574219 132.164062 149.8125 139.921875 153.53125 147.183594 C 156.464844 152.890625 156.816406 157.566406 154.496094 160.332031 C 149.839844 165.914062 142.351562 160.09375 135.738281 154.957031 C 132.386719 152.332031 128.917969 149.640625 126.054688 148.496094 C 119.164062 145.703125 108.753906 141.515625 96.871094 164.742188 C 95.636719 167.265625 94.125 169.609375 92.335938 171.777344 C 90.550781 173.945312 88.535156 175.878906 86.296875 177.574219 C 84.054688 179.269531 81.652344 180.6875 79.078125 181.820312 C 76.507812 182.953125 73.839844 183.777344 71.074219 184.285156 C 66.449219 185.152344 61.796875 185.316406 57.121094 184.773438 C 52.449219 184.234375 47.957031 183.015625 43.652344 181.117188 L 44.828125 178.589844 C 57.90625 184.578125 82.9375 185.765625 94.386719 163.472656 C 106.320312 139.992188 117.472656 142.085938 127.003906 145.882812 C 130.246094 147.183594 133.867188 150.070312 137.375 152.738281 C 144.601562 158.320312 149.546875 161.796875 152.273438 158.53125 C 153.796875 156.703125 153.320312 153.03125 150.960938 148.4375 C 147.226562 141.152344 140.226562 134.226562 135.726562 133.082031 C 134.621094 136.265625 133.40625 139.503906 129.703125 141.460938 C 127.4375 142.714844 125.71875 142.855469 124.585938 141.933594 C 124.011719 141.472656 123.1875 140.34375 123.914062 138.039062 C 124.296875 136.988281 124.8125 136.003906 125.460938 135.09375 C 126.109375 134.183594 126.871094 133.375 127.742188 132.671875 C 128.613281 131.96875 129.5625 131.394531 130.589844 130.949219 C 131.617188 130.503906 132.6875 130.207031 133.796875 130.054688 C 135.195312 126.257812 137.320312 122.378906 144.011719 120.871094 C 145.292969 120.546875 146.59375 120.359375 147.910156 120.304688 C 149.230469 120.253906 150.539062 120.332031 151.839844 120.546875 C 153.144531 120.761719 154.410156 121.105469 155.640625 121.582031 C 156.871094 122.058594 158.039062 122.652344 159.148438 123.367188 C 161.074219 124.59375 162.699219 126.136719 164.019531 127.996094 C 165.34375 129.855469 166.269531 131.898438 166.792969 134.117188 L 166.792969 134.453125 C 169.113281 146.847656 171.617188 153.671875 174.199219 154.71875 C 174.496094 154.832031 174.800781 154.855469 175.109375 154.792969 C 175.421875 154.730469 175.691406 154.589844 175.917969 154.371094 C 181.285156 150.574219 177.050781 128.980469 174.214844 122.949219 L 172.550781 123.535156 C 169.757812 124.511719 167.578125 125.292969 165.746094 124.75 C 165.484375 124.707031 165.234375 124.617188 165.003906 124.484375 C 164.773438 124.355469 164.570312 124.1875 164.398438 123.984375 C 164.222656 123.78125 164.089844 123.554688 164 123.304688 C 163.90625 123.054688 163.859375 122.796875 163.859375 122.53125 C 163.859375 120.644531 166.527344 119.152344 168.933594 118.566406 C 170.019531 118.210938 171.128906 118.128906 172.257812 118.328125 C 173.386719 118.523438 174.402344 118.976562 175.304688 119.683594 C 177.738281 118.835938 180.238281 118.457031 182.8125 118.539062 C 185.386719 118.625 187.859375 119.167969 190.230469 120.171875 C 201.300781 125.085938 204.5 129.734375 200.417969 146.050781 C 198.433594 154.007812 199.132812 157.59375 200.417969 158.25 C 201.707031 158.90625 204.613281 157.46875 208.679688 152.988281 C 209.296875 152.296875 209.820312 151.539062 210.246094 150.714844 C 210.671875 149.890625 210.992188 149.027344 211.199219 148.121094 C 211.40625 147.21875 211.5 146.300781 211.472656 145.375 C 211.449219 144.449219 211.308594 143.539062 211.054688 142.644531 C 207.199219 140.539062 204.554688 138.457031 204.402344 135.667969 C 204.277344 133.417969 205.339844 132.734375 205.980469 132.523438 C 208.191406 131.800781 210.441406 134.871094 211.308594 136.222656 C 212.222656 137.644531 212.929688 139.160156 213.429688 140.773438 C 214.828125 141.515625 216.394531 142.171875 217.929688 142.980469 C 225.492188 146.597656 234.074219 150.6875 237.246094 157.707031 L 237.847656 159.019531 C 238.65625 160.820312 239.523438 162.71875 240.304688 164.699219 C 251.726562 159.339844 263.898438 156.324219 273.386719 160.511719 C 278.542969 162.816406 281.898438 166.488281 284.863281 169.710938 C 290.816406 176.21875 294.757812 180.53125 309.292969 171.109375 L 310.800781 173.453125 C 294.296875 184.074219 288.703125 177.976562 282.847656 171.527344 C 279.941406 168.34375 276.921875 165.0625 272.296875 162.996094 C 263.617188 159.132812 252.171875 162.0625 241.3125 167.183594 C 242.949219 172.125 243.675781 177.363281 241.410156 182.273438 C 238.617188 188.527344 231.390625 193.246094 219.566406 196.695312 C 199.175781 202.316406 178.402344 205.167969 157.25 205.25 Z M 103.621094 175.6875 C 102.320312 175.617188 101.179688 176.011719 100.199219 176.871094 C 97.90625 179.023438 97.796875 180.363281 97.90625 181.171875 C 98.425781 184.925781 106.601562 189.882812 118.6875 196.148438 C 138.378906 206.367188 187.242188 203.269531 218.769531 194.097656 C 229.769531 190.886719 236.351562 186.671875 238.867188 181.1875 C 240.699219 177.195312 240.167969 172.8125 238.785156 168.511719 C 234.039062 170.953125 229.457031 173.660156 225.03125 176.636719 C 216.644531 182.21875 213.65625 180.445312 209.363281 177.179688 C 207.332031 175.507812 205.085938 174.199219 202.628906 173.257812 C 198.015625 171.609375 195.21875 174.109375 191 177.890625 C 186.605469 182.25 181.519531 185.535156 175.738281 187.746094 C 166.09375 191.207031 164.152344 186.226562 162.445312 181.84375 C 161.050781 178.214844 159.652344 174.777344 154.59375 173.703125 C 148.90625 172.488281 146.753906 176.050781 144.277344 180.167969 C 141.804688 184.285156 139.121094 188.738281 132.664062 187.410156 C 128.179688 186.476562 123.148438 183.851562 118.296875 181.324219 C 113.027344 178.535156 107.4375 175.6875 103.621094 175.6875 Z M 132.71875 133.082031 C 131.605469 133.4375 130.582031 133.976562 129.660156 134.695312 C 128.738281 135.417969 127.96875 136.273438 127.355469 137.269531 C 126.8125 138.011719 126.496094 138.839844 126.402344 139.757812 C 127.121094 139.660156 127.789062 139.417969 128.402344 139.03125 C 130.804688 137.632812 131.824219 135.554688 132.71875 133.082031 Z M 207.238281 135.554688 C 207.574219 136.734375 208.273438 137.632812 209.335938 138.25 C 208.777344 137.242188 208.082031 136.34375 207.238281 135.554688 Z M 171.265625 121.066406 C 169.957031 121.109375 168.738281 121.457031 167.605469 122.113281 C 168.859375 121.878906 170.078125 121.53125 171.265625 121.066406 Z M 171.265625 121.066406 " fill-opacity="1" fill-rule="nonzero"/><g fill="#000000" fill-opacity="1"><g transform="translate(183.779082, 242.746275)"><g><path d="M 22.3125 -13.78125 C 22.394531 -11.601562 21.410156 -9.28125 19.359375 -6.8125 C 18.453125 -5.71875 17.398438 -4.664062 16.203125 -3.65625 C 15.003906 -2.65625 13.753906 -1.765625 12.453125 -0.984375 C 11.148438 -0.210938 9.867188 0.394531 8.609375 0.84375 C 7.347656 1.300781 6.1875 1.554688 5.125 1.609375 C 4.175781 1.640625 3.285156 1.457031 2.453125 1.0625 C 1.628906 0.664062 0.957031 0.0976562 0.4375 -0.640625 C -0.0820312 -1.378906 -0.363281 -2.222656 -0.40625 -3.171875 C -0.425781 -3.742188 -0.210938 -4.242188 0.234375 -4.671875 C 0.679688 -5.097656 1.207031 -5.320312 1.8125 -5.34375 C 2.46875 -5.375 3.007812 -5.113281 3.4375 -4.5625 C 3.5625 -4.414062 3.6875 -4.191406 3.8125 -3.890625 C 3.9375 -3.597656 4.082031 -3.226562 4.25 -2.78125 L 4.9375 -2.703125 C 7.0625 -2.796875 9.867188 -4.109375 13.359375 -6.640625 C 17.078125 -9.296875 18.894531 -11.628906 18.8125 -13.640625 C 18.757812 -14.828125 18.382812 -15.96875 17.6875 -17.0625 C 17 -18.15625 16.117188 -19.050781 15.046875 -19.75 C 13.984375 -20.445312 12.863281 -20.773438 11.6875 -20.734375 C 10.914062 -20.691406 9.867188 -20.226562 8.546875 -19.34375 C 7.273438 -18.4375 6.238281 -17.960938 5.4375 -17.921875 C 4.851562 -17.898438 4.347656 -18.101562 3.921875 -18.53125 C 3.503906 -18.957031 3.285156 -19.457031 3.265625 -20.03125 C 3.179688 -22.070312 5.953125 -23.210938 11.578125 -23.453125 C 12.847656 -23.503906 14.101562 -23.265625 15.34375 -22.734375 C 16.582031 -22.210938 17.71875 -21.488281 18.75 -20.5625 C 19.789062 -19.644531 20.628906 -18.601562 21.265625 -17.4375 C 21.910156 -16.269531 22.257812 -15.050781 22.3125 -13.78125 Z M 22.3125 -13.78125 "/></g></g></g><g fill="#000000" fill-opacity="1"><g transform="translate(176.106553, 242.774206)"><g><path d="M 6.1875 -14.421875 C 6.21875 -12.640625 5.515625 -11.738281 4.078125 -11.71875 C 2.898438 -11.695312 2.179688 -12.359375 1.921875 -13.703125 C 1.796875 -14.421875 1.644531 -15.816406 1.46875 -17.890625 C 1.351562 -19.640625 1.160156 -21.023438 0.890625 -22.046875 C 0.765625 -22.390625 0.703125 -22.664062 0.703125 -22.875 C 0.691406 -23.445312 0.910156 -23.9375 1.359375 -24.34375 C 1.816406 -24.757812 2.335938 -24.972656 2.921875 -24.984375 C 4.984375 -25.015625 6.070312 -21.492188 6.1875 -14.421875 Z M 6.1875 -14.421875 "/></g></g></g><g fill="#000000" fill-opacity="1"><g transform="translate(151.868013, 242.674533)"><g><path d="M 22.96875 -12.65625 C 22.945312 -10.476562 21.847656 -8.203125 19.671875 -5.828125 C 18.710938 -4.773438 17.609375 -3.773438 16.359375 -2.828125 C 15.117188 -1.890625 13.828125 -1.066406 12.484375 -0.359375 C 11.148438 0.347656 9.835938 0.894531 8.546875 1.28125 C 7.265625 1.675781 6.09375 1.867188 5.03125 1.859375 C 4.082031 1.847656 3.207031 1.625 2.40625 1.1875 C 1.601562 0.75 0.957031 0.148438 0.46875 -0.609375 C -0.0078125 -1.378906 -0.242188 -2.238281 -0.234375 -3.1875 C -0.234375 -3.757812 0 -4.242188 0.46875 -4.640625 C 0.9375 -5.046875 1.472656 -5.25 2.078125 -5.25 C 2.734375 -5.238281 3.257812 -4.945312 3.65625 -4.375 C 3.769531 -4.226562 3.882812 -4.003906 4 -3.703125 C 4.113281 -3.398438 4.238281 -3.019531 4.375 -2.5625 L 5.0625 -2.453125 C 7.1875 -2.441406 10.054688 -3.613281 13.671875 -5.96875 C 17.515625 -8.425781 19.445312 -10.660156 19.46875 -12.671875 C 19.476562 -13.859375 19.164062 -15.015625 18.53125 -16.140625 C 17.894531 -17.273438 17.0625 -18.21875 16.03125 -18.96875 C 15 -19.71875 13.894531 -20.097656 12.71875 -20.109375 C 11.945312 -20.117188 10.878906 -19.710938 9.515625 -18.890625 C 8.191406 -18.046875 7.128906 -17.628906 6.328125 -17.640625 C 5.742188 -17.640625 5.25 -17.863281 4.84375 -18.3125 C 4.445312 -18.757812 4.253906 -19.269531 4.265625 -19.84375 C 4.273438 -21.882812 7.097656 -22.878906 12.734375 -22.828125 C 14.003906 -22.816406 15.25 -22.519531 16.46875 -21.9375 C 17.6875 -21.351562 18.785156 -20.578125 19.765625 -19.609375 C 20.753906 -18.640625 21.535156 -17.554688 22.109375 -16.359375 C 22.691406 -15.160156 22.976562 -13.925781 22.96875 -12.65625 Z M 22.96875 -12.65625 "/></g></g></g><g fill="#000000" fill-opacity="1"><g transform="translate(131.367986, 241.718233)"><g><path d="M 19.984375 -8.828125 C 19.941406 -7.679688 19.847656 -6.546875 19.703125 -5.421875 C 19.566406 -4.304688 19.375 -3.207031 19.125 -2.125 C 18.457031 1.15625 17.59375 2.769531 16.53125 2.71875 C 15.300781 2.664062 14.738281 1.53125 14.84375 -0.6875 C 14.863281 -1.3125 14.9375 -2.085938 15.0625 -3.015625 C 15.1875 -3.953125 15.351562 -5.035156 15.5625 -6.265625 C 15.757812 -7.515625 15.914062 -8.601562 16.03125 -9.53125 C 16.144531 -10.46875 16.21875 -11.253906 16.25 -11.890625 C 16.445312 -16.546875 14.832031 -18.945312 11.40625 -19.09375 C 10.457031 -19.132812 9.117188 -18.847656 7.390625 -18.234375 C 5.597656 -17.628906 4.242188 -17.347656 3.328125 -17.390625 C 2.753906 -17.410156 2.269531 -17.648438 1.875 -18.109375 C 1.488281 -18.578125 1.3125 -19.097656 1.34375 -19.671875 C 1.4375 -21.773438 4.84375 -22.675781 11.5625 -22.375 C 14.894531 -22.226562 17.25 -20.6875 18.625 -17.75 C 19.695312 -15.425781 20.148438 -12.453125 19.984375 -8.828125 Z M 19.984375 -8.828125 "/></g></g></g></svg>
